<svg width="100" height="100" viewBox="0 0 100 100" fill="none" xmlns="http://www.w3.org/2000/svg">
  <rect width="100" height="100" rx="20" fill="url(#paint0_linear)" />
  <path d="M38.1 69C36.7 69 35.4333 68.7667 34.3 68.3C33.1667 67.8333 32.2333 67.2 31.5 66.4C30.7667 65.6 30.2667 64.7 30 63.7C29.7333 62.7 29.6 61.7 29.6 60.7V58.4H37.6V60C37.6 60.6667 37.7667 61.2333 38.1 61.7C38.4333 62.1667 39 62.4 39.8 62.4C40.6 62.4 41.1667 62.2 41.5 61.8C41.8333 61.4 42 60.9333 42 60.4C42 59.7333 41.8 59.1667 41.4 58.7C41 58.2333 40.5 57.8333 39.9 57.5C39.3 57.1667 38.6333 56.8333 37.9 56.5C37.1667 56.1667 36.4333 55.8 35.7 55.4C35 55 34.3333 54.5333 33.7 54C33.1 53.4667 32.6 52.8 32.2 52C31.8 51.2 31.6 50.2 31.6 49C31.6 47.2667 32 45.8333 32.8 44.7C33.6 43.5667 34.6667 42.7 36 42.1C37.3333 41.5 38.8 41.2 40.4 41.2C42.1333 41.2 43.6333 41.5 44.9 42.1C46.1667 42.7 47.1667 43.5667 47.9 44.7C48.6333 45.8333 49 47.2667 49 49V50.3H41V49.4C41 48.8 40.8333 48.3 40.5 47.9C40.1667 47.5 39.7 47.3 39.1 47.3C38.5 47.3 38 47.5 37.6 47.9C37.2 48.3 37 48.7667 37 49.3C37 49.9 37.2 50.4 37.6 50.8C38 51.2 38.5 51.5667 39.1 51.9C39.7 52.2333 40.3667 52.5667 41.1 52.9C41.8333 53.2333 42.5667 53.6 43.3 54C44.0333 54.4 44.7 54.8667 45.3 55.4C45.9 55.9333 46.4 56.6 46.8 57.4C47.2 58.2 47.4 59.1333 47.4 60.2C47.4 61.9333 47 63.3667 46.2 64.5C45.4 65.6333 44.3 66.5 42.9 67.1C41.5 68.0333 39.9 69 38.1 69Z" fill="white"/>
  <path d="M53.6 68.5V42H71.1V48.1H60.6V52.1H69.6V58.2H60.6V62.4H71.1V68.5H53.6Z" fill="white"/>
  <defs>
    <linearGradient id="paint0_linear" x1="0" y1="0" x2="100" y2="100" gradientUnits="userSpaceOnUse">
      <stop stop-color="#7C3AED"/>
      <stop offset="1" stop-color="#EC4899"/>
    </linearGradient>
  </defs>
</svg> 